<?xml version="1.0" standalone="no"?>
<!DOCTYPE svg PUBLIC "-//W3C//DTD SVG 20010904//EN"
 "http://www.w3.org/TR/2001/REC-SVG-20010904/DTD/svg10.dtd">
<svg version="1.0" xmlns="http://www.w3.org/2000/svg"
 width="174.000000pt" height="174.000000pt" viewBox="0 0 174.000000 174.000000"
 preserveAspectRatio="xMidYMid meet">
<metadata>
Created by potrace 1.11, written by Peter Selinger 2001-2013
</metadata>
<g transform="translate(0.000000,174.000000) scale(0.100000,-0.100000)"
fill="#000000" stroke="none">
<path d="M940 1658 c0 -6 -3 -9 -6 -5 -4 3 -19 0 -34 -8 -15 -8 -30 -12 -32
-10 -3 3 -11 -6 -18 -20 -7 -14 -17 -25 -22 -25 -4 0 -8 -9 -8 -21 0 -11 -4
-17 -10 -14 -5 3 -10 -3 -10 -14 0 -11 -6 -26 -14 -34 -10 -10 -12 -17 -4 -25
7 -7 4 -14 -10 -23 -16 -10 -18 -18 -12 -40 6 -20 4 -31 -6 -40 -13 -11 -18
-6 -15 14 3 14 -38 75 -54 81 -8 3 -12 12 -9 20 3 9 -3 17 -17 21 -13 4 -31
18 -41 30 -10 13 -29 26 -43 29 -14 4 -25 10 -25 14 0 12 -176 8 -191 -4 -8
-6 -24 -10 -36 -9 -12 1 -25 -5 -28 -13 -3 -8 -12 -12 -19 -9 -8 3 -17 -1 -20
-9 -3 -9 -10 -13 -15 -9 -6 3 -21 -7 -35 -22 -14 -15 -28 -24 -32 -21 -7 7
-95 -80 -98 -96 -3 -21 -50 -67 -63 -62 -10 4 -13 -27 -13 -150 l0 -156 45 4
c25 2 45 -1 45 -5 0 -5 5 -5 11 -2 15 10 149 11 149 2 0 -5 5 -5 10 -2 14 9
229 9 237 1 12 -11 -7 -19 -42 -18 -19 1 -37 -3 -40 -8 -3 -6 -14 -10 -24 -10
-24 0 -78 -28 -93 -48 -7 -9 -31 -33 -53 -53 -22 -20 -41 -42 -43 -50 -2 -8
-11 -22 -19 -31 -9 -10 -12 -18 -8 -18 4 0 1 -8 -8 -18 -10 -10 -14 -22 -10
-26 4 -4 1 -11 -7 -16 -19 -12 -22 -180 -4 -180 8 0 11 -11 9 -29 -3 -20 1
-31 12 -35 8 -3 13 -13 10 -20 -3 -8 1 -17 9 -20 9 -3 14 -11 12 -18 -6 -16
80 -90 95 -82 7 4 9 4 5 -1 -7 -7 27 -39 42 -40 3 0 11 -4 19 -9 23 -15 164
-13 179 2 8 7 18 10 23 7 5 -4 9 -2 9 4 0 5 10 13 22 17 28 8 103 83 103 102
0 20 31 24 46 6 6 -8 8 -14 3 -14 -5 0 -9 -11 -9 -25 0 -14 3 -25 7 -25 4 0 3
-11 -2 -25 -8 -20 -6 -27 10 -35 16 -9 18 -15 10 -29 -7 -14 -6 -22 6 -32 8
-7 13 -18 10 -26 -3 -8 -2 -12 3 -9 5 3 12 -5 15 -19 4 -14 11 -25 16 -25 6 0
10 -8 10 -18 0 -21 33 -56 43 -46 4 4 9 0 13 -9 3 -9 12 -13 19 -11 7 3 16 1
20 -5 8 -14 102 -14 110 0 4 6 13 8 20 5 7 -2 22 2 34 10 11 8 21 12 21 7 0
-4 7 1 15 11 8 11 15 16 15 12 0 -5 13 8 30 29 16 21 30 34 30 30 0 -4 8 3 19
16 10 13 16 30 13 38 -3 9 -1 12 6 7 7 -4 12 -2 12 3 0 19 2 26 13 46 6 11 10
24 9 29 -2 4 3 15 10 23 14 17 18 103 5 103 -5 0 -5 6 1 13 15 18 15 26 -4 44
-9 9 -14 26 -11 39 2 13 1 21 -3 19 -10 -6 -45 74 -35 83 4 4 10 1 12 -5 3 -7
12 -13 22 -13 9 0 23 -9 31 -20 8 -11 22 -20 32 -20 10 0 18 -4 18 -10 0 -5 9
-10 20 -10 11 0 20 -4 20 -10 0 -5 9 -10 20 -10 11 0 20 -4 20 -10 0 -5 10
-10 23 -10 13 0 27 -4 33 -10 13 -13 66 -16 84 -5 8 5 28 10 43 11 15 1 38 11
52 24 13 12 28 19 34 15 6 -3 11 -1 11 4 0 6 0 13 0 16 0 3 9 21 20 40 23 40
27 134 8 153 -7 7 -9 12 -5 12 4 0 1 16 -7 35 -9 20 -13 42 -10 50 4 10 0 15
-11 15 -10 0 -15 5 -12 14 3 7 -10 28 -29 47 -18 18 -31 35 -29 38 7 7 -66 81
-80 81 -6 0 -22 11 -34 24 -13 14 -29 22 -36 20 -7 -3 -15 2 -18 10 -4 9 -15
13 -29 11 -12 -3 -25 1 -29 7 -4 7 -31 11 -65 10 -32 0 -62 2 -67 5 -5 3 18
31 51 62 33 31 63 66 66 79 4 12 11 22 15 22 4 0 7 10 6 23 -1 12 4 29 11 37
7 9 11 24 9 35 -2 11 -4 26 -4 33 -1 7 -6 10 -13 6 -7 -5 -9 -2 -5 9 3 8 -1
21 -9 27 -8 7 -14 19 -14 27 0 15 -69 79 -81 76 -4 -2 -16 8 -26 20 -10 13
-24 22 -31 19 -6 -2 -14 3 -18 11 -3 8 -15 13 -29 11 -14 -1 -27 2 -31 7 -8
14 -224 12 -224 -3z"/>
</g>
</svg>
